<?xml version="1.0" standalone="no"?>
<!DOCTYPE svg PUBLIC "-//W3C//DTD SVG 1.1//EN" "http://www.w3.org/Graphics/SVG/1.1/DTD/svg11.dtd" >
<svg xmlns="http://www.w3.org/2000/svg">
<metadata>
This is a custom SVG webfont generated by Font Squirrel.
</metadata>
<defs>
<font id="webfontaY2Sqy03" horiz-adv-x="545" >
<font-face units-per-em="1000" ascent="800" descent="-200" />
<missing-glyph horiz-adv-x="283" />
<glyph unicode=" "  horiz-adv-x="283" />
<glyph unicode="&#x09;" horiz-adv-x="283" />
<glyph unicode="&#xa0;" horiz-adv-x="283" />
<glyph unicode="!" horiz-adv-x="330" d="M205 177h-73l-31 545h140zM103 0v120h130v-120h-130z" />
<glyph unicode="&#x22;" horiz-adv-x="292" d="M180 446v276h84v-276h-84zM39 446v276h83v-276h-83z" />
<glyph unicode="#" horiz-adv-x="584" d="M606 452h-124l-56 -173h100v-64h-121l-69 -215h-76l69 215h-149l-69 -215h-76l69 215h-104v64h125l56 173h-101v64h122l67 206h75l-66 -206h149l67 206h75l-66 -206h103v-64zM257 452l-56 -173h149l57 173h-150z" />
<glyph unicode="$" horiz-adv-x="535" d="M314 -1v-91h-73v87q-109 3 -189 24v96q82 -11 150 -15q19 -1 36 -1q72 0 99 17q36 22 36 67q0 49 -65 91q-45 29 -131 78q-82 47 -108 83q-26 38 -26 102q0 90 45.5 133.5t152.5 55.5v88h73v-86q87 -4 158 -19v-64v-38q-85 16 -170 18h-11q-74 0 -97 -25q-17 -17 -17 -47 v-6q1 -37 47 -64q0 -1 28 -17q51 -26 172 -95q54 -35 73 -77q17 -36 17 -94q0 -88 -47.5 -136t-152.5 -65z" />
<glyph unicode="%" horiz-adv-x="759" d="M622 -6q-63 0 -101 38q-40 40 -40 126v70q0 81 38 122t103 41q63 0 101.5 -41.5t38.5 -121.5v-70q0 -164 -140 -164zM227 0h-86l429 722h85zM174 331q-66 0 -103.5 40.5t-37.5 123.5v70q0 81 38 122t103 41q63 0 101.5 -41.5t38.5 -121.5v-70q0 -164 -140 -164zM681 228 q0 63 -23 86q-13 13 -36 13q-59 0 -59 -99v-71q0 -63 23 -86q13 -13 36 -13q59 0 59 99v71zM233 565q0 63 -23 86q-13 13 -36 13q-59 0 -59 -99v-71q0 -63 23 -86q13 -13 36 -13q59 0 59 99v71z" />
<glyph unicode="&#x26;" horiz-adv-x="650" d="M505 1l-53 55q-73 -62 -175 -65h-18q-112 0 -169 48q-60 54 -60 132q0 59 20 102q20 37 66 75q3 2 8 6t15 10.5t18 12.5q-50 58 -65 86q-19 38 -19 99q0 169 214 169q210 0 210 -161q0 -60 -16.5 -94t-59.5 -67q-1 0 -10 -6l-31 -21l-45 -28l120 -139q25 37 25 106v10h82 q3 -21 3 -42q0 -85 -39 -144q2 -4 16 -18l35 -38l81 -88h-153zM284 653q-100 0 -100 -87q0 -32 19 -60q14 -20 41 -49l15 -17l65 39q61 37 61 86q0 88 -101 88zM231 292q-74 -35 -74 -104q0 -46 30.5 -73t86.5 -27q64 0 111 38z" />
<glyph unicode="'" horiz-adv-x="195" d="M58 446v276h84v-276h-84z" />
<glyph unicode="(" horiz-adv-x="341" d="M165 -185q-61 95 -96 231q-28 113 -28 225t28 225q34 135 96 230h107q-42 -88 -71 -214q-29 -130 -29 -241t29 -242q30 -128 71 -214h-107z" />
<glyph unicode=")" horiz-adv-x="341" d="M189 -185h-106q40 88 70 214q29 131 29 242t-29 241q-29 124 -70 214h106q63 -95 96 -230q28 -113 28 -225t-28 -225q-33 -136 -96 -231z" />
<glyph unicode="*" horiz-adv-x="478" d="M307 524l129 -68l-41 -75l-120 86l9 -153h-81l9 153l-120 -84l-40 74l129 68l-129 68l41 75l121 -86l-10 153h82l-10 -153l120 84l41 -74z" />
<glyph unicode="+" horiz-adv-x="518" d="M315 198v-198h-91v198h-196v91h196v196h91v-196h194v-91h-194z" />
<glyph unicode="," horiz-adv-x="259" d="M122 -93h-78l64 226h115z" />
<glyph unicode="-" horiz-adv-x="360" d="M51 236v115h273v-115h-273z" />
<glyph unicode="." horiz-adv-x="261" d="M73 0v134h124v-134h-124z" />
<glyph unicode="/" horiz-adv-x="267" d="M75 -77h-95l237 800h96z" />
<glyph unicode="0" horiz-adv-x="604" d="M493 62q-69 -71 -187 -71t-188 72q-71 74 -71 234v130q0 155 74 232q72 73 185 73q114 0 186 -73q74 -77 74 -232v-130q0 -162 -73 -235zM432 431q0 103 -31 149t-95 46q-63 0 -94 -46t-31 -149v-139q0 -107 31 -150q33 -46 94 -46q62 0 95 46q31 43 31 150v139z" />
<glyph unicode="1" horiz-adv-x="406" d="M35 0v95l79 1q29 0 31 30v490l-110 -68v107l94 59q19 13 36 13h73q25 0 34 -8t9 -32v-561q-1 -8 6 -24q7 -7 30 -7q16 1 34.5 1t39.5 -1v-95h-356z" />
<glyph unicode="2" horiz-adv-x="552" d="M407 370l-122 -81q-65 -42 -87 -81q-17 -29 -17 -77v-20h327v-111h-436q-32 0 -30 30v48q0 107 29 172.5t98 113.5q43 29 95 60q32 20 78 52q42 34 42 75q0 45 -31 61q-22 14 -78 14h-14q-57 0 -199 -22v97q112 30 209 30q134 0 192 -44q54 -42 54 -132q0 -64 -24 -103 q-22 -38 -86 -82z" />
<glyph unicode="3" horiz-adv-x="554" d="M252 -9q-97 0 -216 28v100q150 -23 203 -23q127 0 127 103v26q0 95 -133 95h-95v100h98q122 0 122 100v14q0 92 -131 92h-6q-49 -2 -183 -21v96q112 30 206 30q131 0 188 -39q64 -45 64 -159q0 -57 -27 -94t-94 -74q78 -22 107 -65q22 -32 22 -100q0 -114 -58 -162 q-59 -47 -194 -47z" />
<glyph unicode="4" horiz-adv-x="552" d="M454 171v-171h-133v170h-278q-47 0 -47 60v29q0 23 12 39l279 411q12 18 45 18h62q60 0 60 -47v-405h89v-104h-89zM321 590l-214 -315h214v315z" />
<glyph unicode="5" horiz-adv-x="564" d="M249 -9q-100 0 -206 28v99q119 -21 195 -21q155 0 155 126q0 73 -62 102q-42 18 -127 18l-124 1q-30 0 -30 29q0 1 1 12.5t3 39.5l4 58q4 64 13 156q12 88 163 92q13 1 30 1q40 0 97 -4q105 -5 128 -6q-2 -54 -2 -104h-257q-37 0 -40 -37l-12 -141q52 2 68 2 q140 0 204 -39q81 -49 81 -176q0 -120 -79 -181q-73 -55 -203 -55z" />
<glyph unicode="6" horiz-adv-x="594" d="M499 55q-64 -64 -183 -64q-124 0 -189 63q-68 66 -68 219v145q0 102 18 161q17 55 58 94q58 58 191 58q94 0 183 -23v-101q-108 21 -175 21q-78 0 -109.5 -37.5t-31.5 -128.5v-30q88 17 140 17q79 -2 118 -16q36 -13 64 -42q46 -49 46 -155q0 -119 -62 -181zM306 364h-6 q-45 0 -107 -14v-77q0 -102 32 -146q28 -40 88 -40q115 0 115 149q0 126 -122 128z" />
<glyph unicode="7" horiz-adv-x="509" d="M493 596l-283 -596h-160l302 615h-332v107h449q32 0 32 -27v-62q0 -19 -8 -37z" />
<glyph unicode="8" horiz-adv-x="615" d="M309 -9q-131 0 -199 55.5t-68 159.5q0 114 120 166q-99 70 -99 163q0 196 246 196q248 0 248 -196q0 -92 -100 -162q67 -31 97 -76q23 -37 23 -91q0 -102 -66 -158q-69 -57 -202 -57zM309 640q-117 0 -117 -113q0 -50 28 -78q32 -32 89 -32q58 0 90 32q27 29 27 78 q0 113 -117 113zM309 331q-66 0 -99 -41q-25 -31 -25 -80q0 -127 124 -127q125 0 125 127q0 49 -25 80q-33 41 -100 41z" />
<glyph unicode="9" horiz-adv-x="573" d="M460 49q-58 -58 -192 -58q-101 0 -191 24v100q106 -20 165 -20q88 0 124 37t36 129v29q-85 -16 -134 -16h-6q-76 2 -117 15q-35 12 -63 43q-45 50 -45 155q0 120 62.5 182t181.5 62q122 0 187 -62q68 -66 68 -219v-146q0 -103 -18 -160q-17 -54 -58 -95zM402 450 q0 102 -32 146q-28 39 -88 39q-115 0 -115 -148q0 -126 122 -128h6q45 0 107 14v77z" />
<glyph unicode=":" horiz-adv-x="261" d="M73 413v119h124v-119h-124zM73 0v119h124v-119h-124z" />
<glyph unicode=";" horiz-adv-x="261" d="M67 412v121h126v-121h-126zM122 -93h-78l52 223h127z" />
<glyph unicode="&#x3c;" horiz-adv-x="461" d="M291 0l-242 223q-11 11 -11 23t11 23l242 222h143l-267 -245l267 -246h-143z" />
<glyph unicode="=" horiz-adv-x="518" d="M54 327v98h430v-98h-430zM54 60v99h430v-99h-430z" />
<glyph unicode="&#x3e;" horiz-adv-x="461" d="M432 223l-242 -223h-143l267 246l-267 245h143l242 -222q11 -11 11 -23t-11 -23z" />
<glyph unicode="?" horiz-adv-x="457" d="M374 423l-73 -66q-52 -52 -58 -146h-95q-5 40 -5 67q0 60 21 100q13 23 46 56l55 50q27 30 27 67q0 45 -31 61q-22 14 -78 14h-15q-81 -2 -167 -20v97q68 28 178 28q135 0 194 -44q54 -42 54 -132q0 -46 -11 -74t-42 -58zM137 0v129h125v-129h-125z" />
<glyph unicode="@" horiz-adv-x="766" d="M745 358q-16 -95 -78 -151q-56 -49 -122 -49h-3h-7q-51 0 -67 31l-8 13q-56 -43 -127 -43q-118 0 -118 121q0 21 5 56l9 47q11 64 24 92q15 33 46 55q36 27 96 27q55 0 102 -41l7 35h98l-61 -334q55 6 86 37q37 37 52 115q9 47 9 95q0 102 -53 153q-61 56 -192 56 q-142 0 -225 -71q-88 -76 -109 -231q-5 -42 -5 -64q0 -118 49 -177q66 -79 208 -79h4q87 0 200 28l-8 -58q-89 -30 -197 -30q-177 0 -264 101q-59 70 -59 215q0 29 6 72q24 177 131 268q103 86 269 86q160 0 239 -73q73 -67 73 -196q0 -47 -10 -106zM422 480q-7 0 -17 -2 q-32 -5 -48 -28t-26 -75l-5 -31q-6 -32 -6 -51q0 -60 66 -60q27 0 57 15l38 209q-29 23 -59 23z" />
<glyph unicode="A" horiz-adv-x="601" d="M469 0l-48 186h-214l-49 -186h-138l177 674q13 51 68 51h99q54 0 68 -51l176 -674h-139zM313 645l-83 -355h169z" />
<glyph unicode="B" horiz-adv-x="602" d="M322 -8q-33 -1 -59 -1q-38 0 -61 2q-75 6 -104 33.5t-29 93.5v576q0 23 26 25q45 3 110 3q53 0 120 -2q224 -8 224 -186q0 -56 -29 -93q-26 -32 -87 -65q78 -25 111 -66.5t33 -113.5q0 -198 -255 -206zM308 628q-22 1 -41 1q-27 0 -45 -2q-6 0 -19 -5q-4 -4 -4 -20v-187 h107q114 0 114 106q0 103 -112 107zM309 329h-110v-193q0 -25 5.5 -31.5t30.5 -8.5q15 -2 40 -2q16 0 37 1q131 5 131 118q0 116 -134 116z" />
<glyph unicode="C" horiz-adv-x="535" d="M330 -8q-134 1 -209 70q-78 75 -78 235v130q0 155 79 231q77 73 208 74h18q85 0 161 -17v-104q-71 8 -141 8h-28q-165 -5 -165 -190v-135q0 -186 165 -191h28q70 0 141 8v-101q-73 -18 -161 -18h-18z" />
<glyph unicode="D" horiz-adv-x="638" d="M515 67q-51 -42 -104 -55q-43 -12 -118 -12h-198q-30 0 -30 31v665q0 25 25 25h207q143 0 214 -62q85 -76 85 -238v-122q0 -166 -81 -232zM462 426q0 119 -58 162q-32 25 -84 31q-21 3 -59 3q-19 0 -42 -1q-21 -1 -21 -21v-467q0 -27 15 -29l19 -2q57 0 85 2 q145 13 145 192v130z" />
<glyph unicode="E" horiz-adv-x="531" d="M333 -7h-48q-45 0 -79 1q-89 8 -117 34q-29 29 -29 92v481q0 63 28 91q25 25 84 32q45 5 117 5h44q103 -2 161 -9v-104h-262q-32 0 -36 -16q-2 -10 -2 -19v-165h287v-100h-287v-175q0 -23 8 -29t30 -6h262v-105q-54 -7 -161 -8z" />
<glyph unicode="F" horiz-adv-x="508" d="M232 616q-23 0 -27.5 -5.5t-4.5 -29.5v-161h286v-100h-286v-320h-133v601q0 64 28 91q23 25 83 32q46 5 118 5h44q114 -2 159 -7v-106h-267z" />
<glyph unicode="G" horiz-adv-x="592" d="M339 -8q-135 1 -208 70q-78 75 -78 235v130q0 155 79 231q77 73 207 74h19q87 0 163 -17v-104q-73 8 -144 8h-28q-165 -5 -165 -190v-135q0 -186 165 -191q41 0 75 1v259h128v-344q-107 -27 -200 -27h-13z" />
<glyph unicode="H" horiz-adv-x="627" d="M440 0v320h-249v-320h-133v722h133v-294h249v294h133v-722h-133z" />
<glyph unicode="I" horiz-adv-x="244" d="M60 0v721h133v-721h-133z" />
<glyph unicode="J" horiz-adv-x="288" d="M118 -172q-18 -1 -35 -1q-41 0 -80 8v95q22 -3 39 -3q9 0 16 1q46 4 46 39v755h133v-772q0 -61 -27.5 -88.5t-91.5 -33.5z" />
<glyph unicode="K" horiz-adv-x="565" d="M430 0l-230 367v-367h-133v723h133v-339l225 338h146l-232 -343l242 -379h-151z" />
<glyph unicode="L" horiz-adv-x="480" d="M104 29q-30 29 -30 93v599h131v-587q0 -33 33 -33h241v-99q-79 -10 -162 -10q-175 0 -213 37z" />
<glyph unicode="M" horiz-adv-x="799" d="M628 0v615l-124 -481q-12 -46 -70 -46h-46q-58 0 -70 46l-124 475v-609h-126v678q0 46 59 46h110q42 0 54 -50l121 -485l119 485q12 50 54 50h110q60 0 60 -46v-678h-127z" />
<glyph unicode="N" horiz-adv-x="622" d="M520 -3h-116q-19 0 -26 22q-3 8 -194 580v-599h-127v678q0 46 60 46h128q15 0 26 -33q5 -9 183 -570v600h127v-677q0 -47 -61 -47z" />
<glyph unicode="O" horiz-adv-x="643" d="M533 62q-74 -71 -201 -71q-126 0 -203 72q-76 73 -76 233v131q0 155 78 230t201 75q122 0 200 -75q79 -75 79 -230v-131q0 -160 -78 -234zM477 429q0 104 -37 145q-42 47 -108 47q-67 0 -108 -47q-38 -43 -38 -145v-136q0 -102 38 -145q41 -47 108 -47q66 0 108 47 q37 41 37 145v136z" />
<glyph unicode="P" horiz-adv-x="589" d="M392 273q-36 -7 -113 -7h-81v-266h-130v696q0 25 25 25h190q135 0 206 -44q86 -56 86 -183q0 -188 -183 -221zM439 501q0 75 -61 103q-36 18 -110 18q-56 0 -64 -7q-5 -5 -5 -16v-233l63 -1h8q67 0 102 15q67 28 67 106v15z" />
<glyph unicode="Q" horiz-adv-x="647" d="M509 45q-43 -29 -115 -43v-36q0 -38 45 -42q13 -1 28 -1q29 0 62 3v-87q-46 -9 -92 -9q-27 0 -54 3q-57 4 -84 31q-30 27 -30 92v47q-83 16 -135 65q-77 74 -77 233v128q0 155 78 229q79 74 201 74q121 0 200 -74q79 -73 79 -229v-128q0 -181 -106 -256zM481 432 q0 103 -37 143q-42 47 -108 47q-67 0 -108 -47q-38 -41 -38 -143v-135q0 -101 38 -144q40 -46 108 -46q66 0 108 46q37 41 37 144v135z" />
<glyph unicode="R" horiz-adv-x="587" d="M438 0l-142 284h-101v-284h-129v696q0 25 25 25h183q292 0 292 -214v-9q0 -109 -79 -166q-24 -17 -62 -33l161 -299h-148zM218 626q-15 -1 -19 -5.5t-4 -19.5v-220h96q40 0 76 14q67 25 67 107q0 47 -26.5 79t-72.5 40q-31 6 -75 6q-20 0 -42 -1z" />
<glyph unicode="S" horiz-adv-x="535" d="M257 -8h-21q-96 0 -184 24v97q82 -12 150 -15q22 -1 40 -1q68 0 95 17q36 22 36 68q0 49 -65 91q-45 30 -132 79q-83 48 -107 83q-26 38 -26 104q0 103 58.5 148t194.5 45q87 0 176 -20v-65v-37q-85 15 -170 18h-11q-74 0 -97 -25q-17 -18 -17 -48v-6q1 -37 46 -65 q4 -2 29 -17q64 -33 171 -96q55 -35 74 -78q17 -36 17 -94q0 -103 -62.5 -153.5t-194.5 -53.5z" />
<glyph unicode="T" horiz-adv-x="517" d="M332 615v-615h-134v615h-191v108h515v-108h-190z" />
<glyph unicode="U" horiz-adv-x="631" d="M596 250q0 -147 -76 -208q-63 -51 -195 -51q-131 0 -194 51q-75 62 -75 208v473h133v-466q0 -84 28 -118q32 -38 108 -38q77 0 109 38q29 35 29 118v466h133v-473z" />
<glyph unicode="V" horiz-adv-x="550" d="M398 38q-6 -25 -19 -33t-44 -8h-98q-31 0 -42 7q-14 7 -22 34l-178 684h142l149 -622l149 622h141z" />
<glyph unicode="W" horiz-adv-x="848" d="M741 43q-4 -25 -16 -35.5t-39 -10.5h-95q-27 0 -38.5 9.5t-17.5 36.5l-102 483l-102 -483q-6 -27 -17.5 -36.5t-38.5 -9.5h-94q-29 0 -40.5 10.5t-14.5 35.5l-104 680h138l74 -630l97 499q7 43 67 43h70q60 0 67 -43l96 -491l85 622h138z" />
<glyph unicode="X" horiz-adv-x="572" d="M431 0l-138 287l-138 -287h-155l196 376l-174 346h152l119 -268l119 268h152l-174 -346l195 -376h-154z" />
<glyph unicode="Y" horiz-adv-x="515" d="M326 283v-283h-129v287l-211 435h153l123 -287l122 287h153z" />
<glyph unicode="Z" horiz-adv-x="557" d="M77 0q-31 0 -31 30v64q0 16 6 26l326 488h-301v114h429q31 0 31 -29v-69q0 -16 -6 -26l-318 -479h327v-119h-463z" />
<glyph unicode="[" horiz-adv-x="312" d="M76 -123q-33 0 -33 30v822q0 29 33 29h219v-92h-96q-32 -5 -32 -31v-635q0 -26 32 -31h96v-92h-219z" />
<glyph unicode="\" horiz-adv-x="266" d="M252 0l-330 733h95l330 -733h-95z" />
<glyph unicode="]" horiz-adv-x="312" d="M247 -123h-218v92h95q32 5 32 31v635q0 26 -32 31h-95v92h218q33 0 33 -29v-822q0 -30 -33 -30z" />
<glyph unicode="^" horiz-adv-x="508" d="M265 520l-243 -267v172l212 234q14 14 31 14t31 -14l213 -234v-172z" />
<glyph unicode="_" horiz-adv-x="513" d="M4 -170v78h525v-78h-525z" />
<glyph unicode="`" horiz-adv-x="288" d="M149 602l-144 144h123l119 -144h-98z" />
<glyph unicode="a" horiz-adv-x="493" d="M330 1v53q-76 -61 -152 -61q-72 0 -113 45q-37 40 -37 108v20q2 83 54 116.5t178 33.5h67v42q0 58 -40 77q-25 12 -79 12h-9q-52 -2 -132 -10v81q83 21 169 21h8q207 -1 207 -181v-357h-121zM326 259q-25 1 -47 1q-67 0 -93 -14q-41 -22 -40 -80v-7q0 -38 25 -59 q23 -20 58 -20h7q39 2 91 24z" />
<glyph unicode="b" horiz-adv-x="557" d="M470 44q-48 -51 -135 -51q-71 0 -142 57v-50h-126v717h129v-207q81 29 140 29q81 0 130 -43q61 -52 63 -196v-67q0 -127 -59 -189zM284 450q-42 0 -88 -20v-323q44 -24 85 -24q58 0 85 29q22 26 30 63q4 20 4 72v34q0 79 -19 116q-27 53 -97 53z" />
<glyph unicode="c" horiz-adv-x="450" d="M277 -7q-236 2 -236 252v59q0 106 62.5 169.5t172.5 66.5h8q63 0 146 -15v-90q-73 8 -118 8q-16 0 -29 -1q-48 -3 -79 -36q-36 -39 -36 -104v-67q0 -137 125 -145h17q51 0 120 15v-90q-88 -22 -148 -22h-5z" />
<glyph unicode="d" horiz-adv-x="552" d="M381 1v48q-74 -56 -147 -56q-189 0 -189 214v81q1 136 71 201q53 49 155 49q51 0 106 -11v190h129v-716h-125zM264 447q-53 -11 -73 -53q-18 -36 -18 -113v-39q0 -97 34 -132q25 -27 79 -27q48 0 91 24l1 334q-43 10 -75 10q-22 0 -39 -4z" />
<glyph unicode="e" horiz-adv-x="534" d="M510 237h-341q3 -66 28 -100q29 -38 91 -45q11 -1 34 -1q70 0 168 22v-88q-93 -32 -204 -32q-241 0 -241 256v43q0 124 69 189q62 59 171 59q118 0 175 -77q35 -47 44 -99q6 -32 6 -110v-17zM281 451q-110 0 -111 -142h223q-3 142 -112 142z" />
<glyph unicode="f" horiz-adv-x="356" d="M243 637q-14 -14 -14 -51v-54l130 -1v-80h-130v-451h-131v451h-89v81h89v46q0 92 41 127q35 31 120 31q50 0 101 -9v-78q-23 1 -41 1q-63 0 -76 -13z" />
<glyph unicode="g" horiz-adv-x="547" d="M507 -12q0 -179 -226 -180h-10q-104 0 -187 19v90q69 -12 137 -15q12 -1 22 -1q86 0 117 36q18 19 18 59v60q-65 -37 -126 -38h-8q-88 0 -133 40q-34 29 -49 72q-15 44 -17 131v39q0 128 58 189q46 50 123 50h14q71 -3 143 -60v53h124v-544zM378 411q-43 28 -101 28 q-46 0 -72 -26q-31 -31 -32 -128v-25q0 -73 16 -105q22 -49 87 -49q54 0 102 27v278z" />
<glyph unicode="h" horiz-adv-x="556" d="M390 0v332q0 64 -18 83q-25 25 -68 25h-12q-43 -3 -101 -34v-406h-129v718h129v-245q89 66 167 66q84 0 124 -51q37 -43 37 -119v-369h-129z" />
<glyph unicode="i" horiz-adv-x="240" d="M57 617v100h127v-100h-127zM57 0v531h127v-531h-127z" />
<glyph unicode="j" horiz-adv-x="291" d="M101 617v100h137v-100h-137zM127 -191q-19 -1 -36 -1q-43 0 -83 8v90q27 -1 41 -1h11q41 1 41 35v592h137v-608q0 -58 -26 -83.5t-85 -31.5z" />
<glyph unicode="k" horiz-adv-x="525" d="M376 0l-187 266v-266h-129v718h129v-433l184 245h146l-201 -245l210 -285h-152z" />
<glyph unicode="l" horiz-adv-x="251" d="M69 0v717h127v-717h-127z" />
<glyph unicode="m" horiz-adv-x="828" d="M638 0v329q0 64 -14 84q-20 27 -56 27q-6 0 -12 -1q-36 -3 -84 -36v-403h-122v329q0 64 -14 84q-20 27 -56 27q-6 0 -12 -1q-44 -5 -84 -30v-409h-126v531h120v-51q81 60 163 60q42 0 65 -13.5t47 -49.5q83 63 172 63q60 0 96 -37q45 -43 45 -135v-368h-128z" />
<glyph unicode="n" horiz-adv-x="567" d="M388 0v330q0 64 -18 84q-24 26 -67 26h-12q-56 -5 -101 -30l-1 -410h-129v531h124v-51q49 34 89 48q36 11 83 11q83 0 125 -51q36 -45 36 -120v-368h-129z" />
<glyph unicode="o" horiz-adv-x="547" d="M277 -7q-235 0 -235 257v40q0 249 235 249t235 -249v-40q0 -257 -235 -257zM386 289q0 146 -109 146t-109 -146v-40q0 -152 109 -152t109 152v40z" />
<glyph unicode="p" horiz-adv-x="549" d="M519 243q-1 -83 -17 -131q-15 -43 -49 -72q-45 -40 -133 -40h-8q-61 1 -126 38v-218h-129v711h124v-49q79 54 153 57h9q76 0 122 -48q54 -59 54 -191v-57zM390 285q0 100 -31 131q-24 24 -64 24q-6 0 -24 -2q-54 -8 -85 -27v-296q50 -27 98 -27q10 0 20 1q51 8 70 45 q16 33 16 108v43z" />
<glyph unicode="q" horiz-adv-x="554" d="M379 -180v218q-65 -37 -126 -38h-8q-88 0 -133 40q-34 29 -49 72q-15 44 -17 131v57q0 126 58 187q49 52 123 52h8q79 -3 149 -60v52h124v-711h-129zM379 411q-46 28 -101 28q-47 0 -72 -25q-32 -32 -32 -129v-43q0 -73 16 -105q22 -49 87 -49q54 0 102 27v296z" />
<glyph unicode="r" horiz-adv-x="362" d="M361 439h-10q-99 0 -164 -40v-399h-127v531h124v-58q76 66 164 66h13v-100z" />
<glyph unicode="s" horiz-adv-x="452" d="M201 -7q-86 0 -158 20v89q92 -14 153 -14q98 0 98 51q0 22 -25.5 41.5t-87.5 49.5q-57 29 -86 48q-60 39 -60 112q0 88 65 123q50 27 145 27q71 0 151 -17v-91q-100 17 -166 17q-65 0 -65 -43q0 -18 26 -38q25 -16 38 -22q43 -20 134 -71q66 -42 66 -118q0 -71 -41 -112 q-52 -52 -187 -52z" />
<glyph unicode="t" horiz-adv-x="374" d="M353 2q-39 -9 -94 -9h-11q-81 0 -113.5 29.5t-32.5 104.5v326l-83 1v78h83v112l127 22v-134h117v-78l-117 -1v-302q0 -45 12 -58q10 -12 29 -13q14 -1 30 -1q24 0 53 2v-79z" />
<glyph unicode="u" horiz-adv-x="562" d="M384 1v48q-78 -57 -157 -57h-13q-161 0 -161 166v374h129v-342q0 -48 18 -73q24 -30 77 -30q54 2 103 34v411h130v-531h-126z" />
<glyph unicode="v" horiz-adv-x="490" d="M363 48q-4 -17 -10 -33q-6 -17 -26 -19h-36h-71q-50 0 -54 4q-6 6 -7 10q-1 1 -12 38l-146 484h137l118 -465l117 465h137z" />
<glyph unicode="w" horiz-adv-x="779" d="M671 44q-1 -16 -14 -43q-7 -5 -39 -5h-96q-31 0 -37 7q-2 2 -10 39l-81 387l-78 -387q0 -2 -1.5 -9.5t-2.5 -13.5q-4 -19 -20 -22q-3 -1 -22 -1h-96h-27q-3 0 -6 1t-5 3l-4 4q-2 2 -3.5 6t-2.5 6t-2 7t-1.5 7t-1.5 7t-1 7l-108 488h132l87 -447l77 402q8 34 13 39 q7 6 41 6h64q34 0 41 -6q6 -4 14 -39l80 -404l82 449h130z" />
<glyph unicode="x" horiz-adv-x="487" d="M359 0l-108 211l-107 -211h-136l145 280l-129 252h136l91 -191l92 191h136l-129 -252l145 -280h-136z" />
<glyph unicode="y" horiz-adv-x="523" d="M321 -83q-35 -98 -133 -108q-12 -1 -29 -1q-33 0 -82 5v93q27 -3 59 -3q34 5 38 6q40 10 40 53q0 16 -8 37l-207 533h151l128 -393l107 393h146z" />
<glyph unicode="z" horiz-adv-x="445" d="M71 0q-37 0 -37 32v39q0 20 11 36l224 327h-209v98h339q36 0 36 -37v-27q0 -17 -9 -29l-245 -339h255v-100h-365z" />
<glyph unicode="{" horiz-adv-x="290" d="M261 -132h-20h-11q-76 0 -111 13q-56 24 -56 100v216q0 61 -104 69v95q104 8 104 69v216q0 76 56 100q35 13 111 13h11h20v-89q-36 -1 -55 -10q-26 -12 -26 -47v-167q-1 -50 -18.5 -74t-62.5 -38l-70 -21q85 -24 113 -51q37 -34 37 -107l1 -141q0 -34 26 -48q17 -8 55 -9 v-89z" />
<glyph unicode="|" horiz-adv-x="169" d="M43 -247v995h89v-995h-89z" />
<glyph unicode="}" horiz-adv-x="279" d="M296 259q-14 -5 -38 -16q-21 -17 -21 -46v-216q0 -94 -78 -106q-44 -7 -96 -7h-24v39v50q30 1 47 7q34 10 34 50v162q0 60 27 84t124 53q-92 27 -121 59q-29 34 -29 101l-1 140q0 38 -34 50q-17 6 -47 7v89h13q51 0 107 -7q78 -12 78 -106v-216q0 -31 21 -46q9 -8 38 -16 q33 -6 45 -7v-95q-20 -1 -45 -7z" />
<glyph unicode="~" horiz-adv-x="444" d="M334 127h-9q-54 0 -126 30q-24 10 -48 11h-6q-35 0 -92 -29v92q51 23 80 26q7 1 14 1q29 0 61 -11l72 -26q19 -6 45 -8h9q39 0 81 23v-89q-39 -19 -81 -20z" />
<glyph unicode="&#xa1;" horiz-adv-x="415" d="M145 593v129h142v-129h-142zM141 0l32 531h84l33 -531h-149z" />
<glyph unicode="&#xa2;" horiz-adv-x="480" d="M375 439l-126 -337q32 -8 51 -10q12 -1 25 -1q58 0 137 15v-89q-92 -22 -178 -22q-32 0 -71 7l-25 -67h-49l30 81q-120 62 -120 229v58q0 105 62.5 168t170.5 66q26 0 79 -3l28 77h48l-29 -81q29 -4 54 -8v-89q-34 3 -87 6zM289 440q-47 -3 -78 -36q-35 -38 -35 -103v-66 q0 -45 32 -111l119 317z" />
<glyph unicode="&#xa3;" horiz-adv-x="549" d="M95 0q-30 0 -30 31v33q0 27 9 36q53 55 53 96v124h-71v100h71v100q0 113 55 162q56 50 192 50q80 0 160 -18v-103q-75 8 -160 8q-59 0 -84 -19q-29 -23 -29 -79v-101h196v-100h-196v-114q0 -32 -45 -95h320v-111h-441z" />
<glyph unicode="&#xa4;" horiz-adv-x="457" d="M292 627h-108l-101 119h83l72 -93l71 93h84zM284 -7q-235 1 -235 248v58q0 105 62.5 167.5t171.5 65.5h8q62 0 147 -14v-90q-78 9 -125 9q-13 0 -23 -1q-46 -3 -78 -36q-36 -38 -36 -103v-66q0 -134 125 -142h17q49 0 120 14v-88q-88 -22 -149 -22h-5z" />
<glyph unicode="&#xa5;" horiz-adv-x="447" d="M339 376h103v-78h-141l-7 -14v-105h148v-78h-148v-101h-129v101h-144v78h144v119h-144v78h101l-168 346h153l123 -298l122 298h153z" />
<glyph unicode="&#xa6;" horiz-adv-x="200" d="M61 348v374h84v-374h-84zM61 -186v375h84v-375h-84z" />
<glyph unicode="&#xa7;" horiz-adv-x="535" d="M267 -9h-19q-89 0 -164 17v81q94 -15 129 -16q16 -1 29 -1q55 0 78 10q28 12 28 46t-53 57q-39 15 -100 43q-65 30 -93 59q-26 31 -26 72q0 46 17 72t65 47q-54 28 -71 57q-13 22 -13 69q0 67 52 97t174 30q83 0 157 -13v-23v-27v-32q-49 8 -141 15h-6q-74 0 -91 -24 q-8 -12 -7 -28q2 -27 41 -41q7 -3 24 -9q37 -11 139 -52q79 -40 79 -123q0 -73 -91 -119q61 -31 79 -63q13 -20 13 -63q0 -134 -229 -138zM306 429h-5q-76 0 -95 -28q-9 -15 -9 -33q0 -37 72 -66q43 1 67 12q32 14 32 48q0 35 -62 67z" />
<glyph unicode="&#xa8;" horiz-adv-x="548" d="M339 624v89h100v-89h-100zM130 624v89h100v-89h-100z" />
<glyph unicode="&#xa9;" horiz-adv-x="813" d="M423 143q-79 1 -121 43q-46 45 -46 142v78q0 93 47 140q43 44 120 45h8q46 0 96 -10v-65q-37 5 -76 5h-22q-95 -2 -95 -114v-81q0 -111 95 -114h22q39 0 76 5v-63q-44 -11 -95 -11h-9zM424 -8q-149 0 -256 107q-106 107 -106 261q0 153 106 262t256 109q149 0 256 -110 q108 -109 108 -261q0 -153 -108 -261q-107 -107 -256 -107zM422 688q-131 0 -224 -97q-92 -97 -92 -231q0 -135 92 -230t224 -95q131 0 223 95q93 94 93 230q0 135 -93 231q-91 97 -223 97z" />
<glyph unicode="&#xaa;" horiz-adv-x="340" d="M298 384h-75v32q-43 -37 -90 -37q-44 0 -68 29q-23 26 -23 68v13q1 53 32.5 74t107.5 21h39v31q0 35 -22 47q-15 8 -46 8h-7q-28 0 -80 -6v53q51 14 100 14h7q125 -2 125 -116v-231zM221 545q-17 1 -31 1q-37 0 -51 -9q-24 -13 -24 -52q1 -48 51 -48h2q23 2 53 15v93z " />
<glyph unicode="&#xab;" horiz-adv-x="700" d="M534 61l-166 194q-11 13 -11 24t11 24l167 192h135l-188 -217l189 -217h-137zM229 61l-166 194q-11 13 -11 24q0 13 10 24l167 192h136l-189 -217l189 -217h-136z" />
<glyph unicode="&#xac;" horiz-adv-x="489" d="M372 147v265q0 21 -7 27.5t-30 6.5h-313v92h427q30 0 30 -28v-363h-107z" />
<glyph unicode="&#xad;" horiz-adv-x="360" d="M51 236v115h273v-115h-273z" />
<glyph unicode="&#xae;" horiz-adv-x="813" d="M424 -8q-149 0 -256 107q-106 107 -106 261q0 153 106 262t256 109q149 0 256 -110q108 -109 108 -261q0 -153 -108 -261q-107 -107 -256 -107zM422 688q-131 0 -224 -97q-92 -97 -92 -231q0 -135 92 -230t224 -95q131 0 223 95q93 94 93 230q0 135 -93 231 q-91 97 -223 97zM499 148l-83 171h-14h-42v-171h-78v141v181v96q0 19 18 19h104q85 0 123 -28q47 -33 47 -102v-6q0 -67 -45 -101q-11 -7 -36 -19l94 -181h-88zM461 514q-19 9 -87 9q-13 -1 -13 -14l-1 -129h54q29 2 44 7q39 17 39 64t-36 63z" />
<glyph unicode="&#xaf;" horiz-adv-x="312" d="M8 602v112h312v-112h-312z" />
<glyph unicode="&#x2c9;" horiz-adv-x="312" d="M8 602v112h312v-112h-312z" />
<glyph unicode="&#xb0;" horiz-adv-x="408" d="M210 383q-66 0 -112 46t-46 114q0 67 46 113q47 47 112 47q66 0 113 -47q46 -46 46 -113q0 -68 -46 -114t-113 -46zM210 633q-37 0 -62.5 -26t-25.5 -64q0 -37 25.5 -63t62.5 -26t63 26t26 63q0 38 -26 64t-63 26z" />
<glyph unicode="&#xb1;" horiz-adv-x="463" d="M286 284v-129h-91v129h-168v83h168v118h91v-118h167v-83h-167zM26 1v82h427v-82h-427z" />
<glyph unicode="&#xb2;" horiz-adv-x="292" d="M26 710q62 18 120 18q75 0 108 -23.5t33 -75.5q0 -35 -14 -57.5t-49 -45.5q-7 -4 -29 -18.5t-39 -24.5q-33 -21 -43.5 -38.5t-11.5 -48.5h181v-69h-246q-22 0 -22 21v25q0 107 73 158l-6 -2q20 11 58 34q13 7 43 27q21 17 21 35q0 22 -13 30q-11 7 -43 8q-29 0 -121 -13 v60z" />
<glyph unicode="&#xb3;" horiz-adv-x="292" d="M22 711q63 17 118 17q75 0 107 -22q38 -26 38 -89q0 -50 -56 -88q60 -25 60 -90q0 -69 -40 -94q-34 -23 -104 -23q-60 0 -124 16v63q84 -13 117 -13q65 2 65 50v14q0 46 -69 46h-57v63h59q62 0 62 49v8q0 44 -64 44h-3h-3q-26 0 -106 -12v61z" />
<glyph unicode="&#xb4;" horiz-adv-x="279" d="M130 623h-73l108 123h97z" />
<glyph unicode="&#xb5;" horiz-adv-x="567" d="M398 2v55q-45 -33 -75 -46q-28 -11 -63 -11q-23 0 -66 20v-200h-128v712h128v-337q0 -48 19 -73q22 -29 74 -29h4q53 0 103 33v406h129v-530h-125z" />
<glyph unicode="&#xb6;" horiz-adv-x="568" d="M480 643v-729h-92v729h-97v-729h-92v505q-171 0 -171 152q0 71 40 111t114 40h377v-79h-79z" />
<glyph unicode="&#xb7;" horiz-adv-x="231" d="M56 206v134h127v-134h-127z" />
<glyph unicode="&#x2219;" horiz-adv-x="231" d="M56 206v134h127v-134h-127z" />
<glyph unicode="&#xb8;" horiz-adv-x="293" d="M132 -241q-45 0 -79 7v36q32 -4 54 -4q11 0 19 1q26 2 45.5 17t19.5 37q0 52 -75 52h-39v94h64v-61q69 0 94 -24q20 -20 20 -59q0 -96 -123 -96z" />
<glyph unicode="&#xb9;" horiz-adv-x="227" d="M14 389h41h8q5 0 9 3l1 2q1 0 2 10v251l-61 -36v68l55 33q13 8 22 8h40q29 0 29 -27v-297q1 -7 4 -11v1q2 -3 10 -5h6h41v-60h-207v60z" />
<glyph unicode="&#xba;" horiz-adv-x="358" d="M186 379q-144 0 -142 164v30q2 159 142 159t141 -159v-30q2 -164 -141 -164zM250 572q0 93 -64 93q-65 0 -65 -93l-1 -29q0 -97 66 -97q65 0 65 97z" />
<glyph unicode="&#xbb;" horiz-adv-x="700" d="M668 255l-166 -194h-137l189 217l-188 217h135l167 -192q11 -13 11 -24t-11 -24zM362 255l-166 -194h-136l189 217l-189 217h136l167 -192q10 -11 10 -24q0 -11 -11 -24z" />
<glyph unicode="&#xbc;" horiz-adv-x="674" d="M120 728h3q27 0 27 -26v-291q2 -14 14 -14h43v-59h-194v59h44q5 0 9 4.5t4 9.5v246l-57 -36v67l51 33q11 7 21 7h36h-1zM166 0h-87l430 722h85zM560 304l-109 -156h109v156zM415 90q-27 0 -27 50q0 14 6 23l149 213q8 11 28 11h33q36 0 36 -28l1 -211h46l1 -59l1 -1l-1 2 h-48v-89h-80v89h-145z" />
<glyph unicode="&#xbd;" horiz-adv-x="676" d="M167 0h-87l430 722h85zM15 397h38q8 0 15 5l1 1q1 2 3 8v246l-58 -36v67l52 33q10 7 20 7h38q27 0 27 -26q0 -287 -1 -287q2 -5 3 -12q6 -6 16 -6h39v-59h-193v59zM445 375q63 17 114 17q62 0 94 -17q41 -23 41 -80q0 -55 -45 -91l-85 -54q-46 -33 -48 -83h173v-66h-234 q-17 0 -20 15q-1 3 -1 29q0 105 69 154h2q-1 0 3 3l11 7q29 17 74 48q21 17 21 36q0 35 -48 35q-30 0 -121 -13v60z" />
<glyph unicode="&#xbe;" horiz-adv-x="723" d="M469 90q-27 0 -27 35v15q0 15 7 23l148 213q8 11 28 11h33q36 0 36 -28v-8l1 -203h46v-58q-19 -1 -31 -1t-16 1v-89h-80v89h-145zM221 0h-87l430 722h85zM14 711q63 17 113 17q78 0 109 -28q28 -25 28 -80q0 -51 -53 -87q58 -24 57 -88q0 -66 -37 -91q-31 -22 -100 -22 q-55 0 -118 15v61q73 -12 103 -12h8q62 0 62 49v13q0 46 -65 46h-54v61h56q59 0 59 48v7q0 44 -61 44h-3h-3q-24 -1 -101 -12v59zM614 304l-108 -156h108v156z" />
<glyph unicode="&#xbf;" horiz-adv-x="498" d="M208 603v128h125v-128h-125zM292 0q-136 0 -194 45q-54 41 -54 132q0 46 11 74t41 58q21 18 73 66q53 53 59 146h94q6 -37 6 -68q0 -59 -22 -99q-14 -25 -46 -57l-54 -49q-28 -29 -28 -67q0 -46 31 -62q27 -14 85 -14h8q76 1 168 21v-98q-68 -28 -178 -28z" />
<glyph unicode="&#xc0;" horiz-adv-x="600" d="M278 820l-118 113h82l98 -113h-62zM469 0l-47 186h-214l-50 -186h-137l176 673q13 51 68 51h99q56 0 69 -51l176 -673h-140zM314 644l-84 -355h170z" />
<glyph unicode="&#xc1;" horiz-adv-x="600" d="M345 819h-61l97 112h82zM469 0l-47 186h-214l-50 -186h-137l176 673q13 51 68 51h99q56 0 69 -51l176 -673h-140zM314 644l-84 -355h170z" />
<glyph unicode="&#xc2;" horiz-adv-x="601" d="M384 829l-72 94l-72 -94h-74l94 113h104l94 -113h-74zM469 0l-47 186h-214l-50 -186h-137l176 673q13 51 68 51h99q56 0 69 -51l176 -673h-140zM314 644l-84 -355h170z" />
<glyph unicode="&#xc3;" horiz-adv-x="601" d="M346 809l-70 20q-30 8 -52 9h-7q-39 0 -48 -34h-42q8 86 75 86q21 0 45 -7l70 -20q32 -8 52 -9h7q39 0 48 34h42q-8 -86 -75 -86q-21 0 -45 7zM469 0l-47 186h-214l-50 -186h-137l176 674q14 50 68 50h99q55 0 69 -50l176 -674h-140zM314 644l-84 -355h170z" />
<glyph unicode="&#xc4;" horiz-adv-x="599" d="M369 836v80h93v-80h-93zM160 836v80h93v-80h-93zM469 0l-47 186h-214l-50 -186h-137l176 674q14 50 68 50h99q55 0 69 -50l176 -674h-140zM314 644l-84 -355h170z" />
<glyph unicode="&#xc5;" horiz-adv-x="600" d="M312 791q-42 0 -70.5 28t-28.5 69t28.5 69.5t70.5 28.5t70.5 -28.5t28.5 -69.5t-28.5 -69t-70.5 -28zM469 0l-47 186h-214l-50 -186h-137l176 673q13 51 68 51h99q56 0 69 -51l176 -673h-140zM312 969q-34 0 -58 -23.5t-24 -57.5q0 -33 24 -56.5t58 -23.5t57.5 23.5 t23.5 56.5q0 34 -23.5 57.5t-57.5 23.5zM314 643l-84 -354h170z" />
<glyph unicode="&#xc6;" horiz-adv-x="809" d="M522 1q-61 6 -84 31q-29 29 -29 93v61h-197l-57 -186h-137l224 671q14 51 68 51h103h4l384 1v-103h-272v-200h259v-100h-259v-171q0 -39 41 -39h231v-106q-79 -9 -156 -9q-62 0 -123 6zM382 627q-27 0 -36 -28q0 -2 -10 -32l-38 -113l-53 -164h164v337h-27z" />
<glyph unicode="&#xc7;" horiz-adv-x="549" d="M376 0v-85q76 0 102 -22q20 -15 20 -50q0 -84 -126 -84q-40 0 -78 5v33q29 -3 50 -3q13 0 22 1q66 6 66 46q0 45 -77 45h-36v116q-113 12 -174 68q-79 73 -79 232v128q0 154 80 229q78 72 208 73h19q83 0 159 -16v-103q-68 8 -131 8q-19 0 -37 -1q-165 -4 -165 -188v-133 q0 -185 165 -189h28l140 8v-100q-62 -15 -156 -18z" />
<glyph unicode="&#xc8;" horiz-adv-x="542" d="M247 820l-121 113h84l100 -113h-63zM178 1q-63 6 -88 30q-29 29 -29 93v480q0 80 46 105q26 14 71 18q60 5 154 5q112 -2 164 -8v-105l-263 -1q-24 0 -31 -6.5t-7 -27.5v-165h288v-100h-288v-175q0 -21 7 -27.5t31 -6.5l263 -1v-105q-57 -7 -164 -7h-29q-72 0 -125 4z " />
<glyph unicode="&#xc9;" horiz-adv-x="542" d="M315 818h-62l99 113h84zM184 1q-62 6 -87 30q-30 29 -30 92v475q0 79 46 104q26 14 71 18q51 5 128 5h26q112 -2 164 -8v-104h-262q-24 0 -31.5 -7t-7.5 -28v-163h288v-99h-288v-173q0 -21 7 -27.5t32 -6.5l262 -1v-104q-57 -7 -164 -7h-29q-70 0 -125 4z" />
<glyph unicode="&#xca;" horiz-adv-x="543" d="M355 829l-74 94l-73 -94h-76l97 113h105l97 -113h-76zM178 1q-63 6 -88 30q-29 29 -29 93v480q0 79 46 104q28 15 71 19q53 4 125 4h29q107 0 164 -7v-105l-263 -1q-24 0 -31 -6.5t-7 -27.5v-165h288v-100h-288v-175q0 -21 7 -27.5t31 -6.5l263 -1v-105q-57 -7 -164 -7 h-29q-72 0 -125 4z" />
<glyph unicode="&#xcb;" horiz-adv-x="542" d="M340 835v79h95v-79h-95zM128 835v79h95v-79h-95zM178 1q-63 6 -88 30q-29 29 -29 93v480q0 80 46 105q26 14 71 18q60 5 154 5q112 -2 164 -8v-105h-263q-24 0 -31 -7t-7 -28v-165h288v-100h-288v-175q0 -21 7 -27.5t31 -6.5l263 -1v-105q-57 -7 -164 -7h-29 q-72 0 -125 4z" />
<glyph unicode="&#xcc;" horiz-adv-x="310" d="M131 819l-126 114h88l104 -114h-66zM95 0v720h134v-720h-134z" />
<glyph unicode="&#xcd;" horiz-adv-x="310" d="M190 819h-66l104 112h88zM95 0v720h133v-720h-133z" />
<glyph unicode="&#xce;" horiz-adv-x="310" d="M231 829l-72 94l-73 -94h-74l95 113h103l95 -113h-74zM93 0v720h134v-720h-134z" />
<glyph unicode="&#xcf;" horiz-adv-x="310" d="M221 835v79h98v-79h-98zM3 835v79h98v-79h-98zM92 0v720h133v-720h-133z" />
<glyph unicode="&#xd0;" horiz-adv-x="650" d="M526 67q-48 -38 -93 -53q-48 -14 -127 -14h-197q-30 0 -30 31v307h-78v74h78v280q0 30 30 30h201q143 0 213 -62q84 -76 84 -239v-121q0 -166 -81 -233zM474 426q0 118 -57 163q-31 24 -84 30q-19 3 -91 3q-30 -5 -30 -32v-178h125v-74h-125v-205q0 -28 33 -31q74 0 85 1 q48 5 81 27q63 42 63 167v129z" />
<glyph unicode="&#xd1;" horiz-adv-x="650" d="M364 809l-71 20q-32 8 -52 9h-7q-40 0 -49 -34h-42q8 86 75 86q21 0 45 -7l71 -20q32 -8 52 -9h7q40 0 49 34h42q-8 -86 -75 -86q-21 0 -45 7zM598 44q0 -47 -60 -47h-87q-23 0 -34 15q-12 17 -32 72l-193 509v-593h-118v678q0 46 60 46h96q23 0 39 -34q7 -16 64 -166 l146 -397v594h119v-677z" />
<glyph unicode="&#xd2;" horiz-adv-x="644" d="M299 819l-118 112h82l98 -112h-62zM537 61q-74 -70 -202 -70t-201 70q-78 73 -78 232v129q0 154 78 228q80 74 201 74q122 0 201 -74q79 -73 79 -228v-129q0 -159 -78 -232zM481 425q0 100 -38 143q-40 46 -108 46q-67 0 -107 -46q-38 -43 -38 -143v-135q0 -101 38 -144 q40 -46 107 -46q68 0 108 46q38 43 38 144v135z" />
<glyph unicode="&#xd3;" horiz-adv-x="644" d="M367 819h-61l97 113h83zM537 61q-74 -70 -202 -70t-201 70q-78 73 -78 232v129q0 154 78 228q80 74 201 74q122 0 201 -74q79 -73 79 -228v-129q0 -159 -78 -232zM481 425q0 100 -38 143q-40 46 -108 46q-67 0 -107 -46q-38 -43 -38 -143v-135q0 -101 38 -144 q40 -46 107 -46q68 0 108 46q38 43 38 144v135z" />
<glyph unicode="&#xd4;" horiz-adv-x="644" d="M406 827l-72 94l-73 -94h-74l95 113h104l94 -113h-74zM537 61q-74 -70 -202 -70t-201 70q-78 73 -78 232v129q0 154 78 228q80 74 201 74q122 0 201 -74q79 -73 79 -228v-129q0 -159 -78 -232zM481 424q0 101 -38 144q-40 46 -108 46q-67 0 -107 -46q-38 -43 -38 -144 v-135q0 -100 38 -143q40 -46 107 -46q68 0 108 46q38 43 38 143v135z" />
<glyph unicode="&#xd5;" horiz-adv-x="644" d="M369 809l-71 20q-30 7 -51 9h-7q-40 0 -49 -34h-42q8 86 75 86q21 0 45 -7l70 -20q32 -8 52 -9h7q40 0 49 34h42q-8 -86 -75 -86q-21 0 -45 7zM537 61q-73 -70 -201 -70t-202 70q-78 73 -78 233v129q0 155 78 228q80 75 202 75t200 -75q79 -73 79 -228v-129 q0 -160 -78 -233zM481 426q0 100 -38 143q-41 47 -107 47q-67 0 -108 -47q-38 -43 -38 -143v-136q0 -102 38 -143q41 -47 108 -47q66 0 107 47q38 41 38 143v136z" />
<glyph unicode="&#xd6;" horiz-adv-x="644" d="M392 835v79h94v-79h-94zM183 835v79h93v-79h-93zM537 61q-74 -70 -202 -70t-201 70q-78 73 -78 233v128q0 156 78 229q80 74 201 74q122 0 201 -74q79 -73 79 -229v-128q0 -160 -78 -233zM481 425q0 102 -38 143q-41 47 -108 47q-66 0 -107 -47q-38 -41 -38 -143v-135 q0 -101 38 -144q40 -46 107 -46q68 0 108 46q38 43 38 144v135z" />
<glyph unicode="&#xd7;" horiz-adv-x="518" d="M430 17l-161 162l-161 -162l-64 65l161 162l-160 161l64 65l160 -161l159 161l65 -65l-160 -161l161 -162z" />
<glyph unicode="&#xd8;" horiz-adv-x="643" d="M536 62q-73 -70 -201 -70q-105 0 -164 44l-40 -71h-53l54 95q-76 64 -76 236v129q0 155 78 229t201 75q78 0 153 -39l38 68h52l-57 -91l13 -12q79 -75 79 -230v-129q0 -160 -77 -234zM335 618q-68 0 -108 -46q-37 -41 -37 -144v-136q0 -79 12 -109l226 404q-35 31 -90 31 h-3zM480 428q0 35 -2 61q-3 41 -16 63l-231 -411q31 -40 104 -40q66 0 107 47q38 43 38 144v136z" />
<glyph unicode="&#xd9;" horiz-adv-x="658" d="M307 819l-119 113h83l98 -113h-62zM340 -9q-131 0 -194 51q-76 60 -76 206v466h133v-460q0 -83 30.5 -118.5t106.5 -35.5t106.5 35.5t30.5 118.5v460h134v-466q0 -146 -77 -206q-63 -51 -194 -51z" />
<glyph unicode="&#xda;" horiz-adv-x="658" d="M375 819h-61l97 114h83zM340 -9q-131 0 -194 51q-76 60 -76 206v466h133v-460q0 -83 30.5 -118.5t106.5 -35.5t106.5 35.5t30.5 118.5v460h134v-466q0 -146 -77 -206q-63 -51 -194 -51z" />
<glyph unicode="&#xdb;" horiz-adv-x="658" d="M414 828l-73 94l-73 -94h-74l95 112h104l95 -112h-74zM340 -9q-131 0 -194 51q-76 60 -76 206v466h133v-460q0 -83 30.5 -118.5t106.5 -35.5t106.5 35.5t30.5 118.5v460h134v-466q0 -146 -77 -206q-63 -51 -194 -51z" />
<glyph unicode="&#xdc;" horiz-adv-x="658" d="M399 835v79h93v-79h-93zM189 835v79h94v-79h-94zM340 -9q-131 0 -194 51q-76 60 -76 206v467h133v-461q0 -83 30.5 -118.5t106.5 -35.5t106.5 35.5t30.5 118.5v461h134v-467q0 -146 -77 -206q-63 -51 -194 -51z" />
<glyph unicode="&#xdd;" horiz-adv-x="310" d="M83 827v99h155v-99h-155zM83 0v713h155v-713h-155z" />
<glyph unicode="&#xde;" horiz-adv-x="535" d="M283 1v-86q76 0 102 -22q19 -15 19 -50q0 -84 -125 -84q-40 0 -78 5l-1 33q31 -3 51 -3q13 0 22 1q66 6 66 46q0 45 -77 45h-36v114q-100 4 -174 24v96q82 -10 150 -15q19 -1 35 -1q73 0 102 18q34 19 34 66q0 49 -65 91q-52 33 -131 77q-82 47 -108 83q-26 38 -26 102 q0 102 58.5 146.5t194.5 44.5q87 0 176 -20v-64v-37q-85 16 -170 18h-11q-74 0 -97 -25q-17 -17 -17 -47v-6q1 -37 47 -64q3 -2 28 -17q51 -26 172 -95q54 -35 73 -77q17 -36 17 -93q0 -94 -55.5 -143t-175.5 -61z" />
<glyph unicode="&#xdf;" horiz-adv-x="621" d="M329 0h-7h-17v103h8q73 0 105 27t32 92q0 116 -136 116q-20 0 -20 31v24q0 30 20 30q113 0 113 107q0 101 -113 107h-10q-98 0 -98 -95v-542h-130v528q0 72 14 109t50 62q51 33 166 33h26q224 -8 224 -187q0 -55 -29 -93q-27 -33 -87 -64q78 -25 111 -67t33 -115 q0 -198 -255 -206z" />
<glyph unicode="&#xe0;" horiz-adv-x="521" d="M276 626l-126 120h92l104 -120h-70zM469 1h-126v49q-72 -57 -150 -57q-73 0 -114 45q-38 41 -38 107v20q2 82 55.5 115.5t179.5 33.5h64v38q0 55 -38 73q-25 12 -79 12h-8q-53 -2 -134 -10l-1 83q84 21 172 21h8q209 -2 209 -179v-351zM340 253q-26 1 -48 1 q-64 0 -89 -13q-39 -21 -39 -76v-7q1 -36 25 -56q22 -19 56 -19h7q39 2 88 23v147z" />
<glyph unicode="&#xe1;" horiz-adv-x="521" d="M270 626h-70l103 120h93zM469 1h-126v49q-72 -57 -150 -57q-73 0 -114 45q-38 41 -38 107v20q2 82 55.5 115.5t179.5 33.5h64v38q0 55 -38 73q-25 12 -79 12h-8q-53 -2 -134 -10l-1 83q84 21 172 21h8q209 -2 209 -179v-351zM340 253q-26 1 -48 1q-64 0 -89 -13 q-39 -21 -39 -76v-7q1 -36 25 -56q22 -19 56 -19h7q39 2 88 23v147z" />
<glyph unicode="&#xe2;" horiz-adv-x="521" d="M343 626l-71 93l-71 -93h-83l100 120h108l100 -120h-83zM469 1h-126v49q-72 -57 -150 -57q-73 0 -114 45q-38 41 -38 107v20q2 82 55.5 115.5t179.5 33.5h64v38q0 55 -38 73q-25 12 -79 12h-8q-53 -2 -134 -10l-1 83q84 21 172 21h8q209 -2 209 -179v-351zM340 253 q-24 1 -44 1q-68 0 -93 -13q-39 -21 -39 -76v-7q1 -36 25 -56q22 -19 56 -19h7q39 2 88 23v147z" />
<glyph unicode="&#xe3;" horiz-adv-x="521" d="M326 633l-70 20q-32 8 -52 9h-6q-38 0 -47 -34h-48q6 92 79 92q22 0 46 -7l70 -19q38 -9 52 -10h2q41 0 51 35h48q-6 -93 -79 -93q-22 0 -46 7zM469 1h-126v49q-72 -57 -150 -57q-73 0 -114 45q-38 41 -38 107v20q2 82 55.5 115.5t179.5 33.5h64v39q0 53 -38 73 q-22 11 -71 11h-16q-53 -2 -134 -10l-1 84q81 21 165 21h15q209 -2 209 -179v-352zM340 253q-26 1 -48 1q-64 0 -89 -13q-39 -19 -39 -76v-7q1 -36 25 -56q22 -19 56 -19h7q39 2 88 23v147z" />
<glyph unicode="&#xe4;" horiz-adv-x="521" d="M326 628v85h101v-85h-101zM116 628v85h100v-85h-100zM469 1h-126v49q-72 -57 -150 -57q-73 0 -114 45q-38 41 -38 107v20q2 82 55.5 115.5t179.5 33.5h64v39q0 53 -38 73q-24 12 -73 12h-14q-57 -2 -134 -11l-1 84q81 21 165 21h15q209 -2 209 -179v-352zM340 253 q-26 1 -48 1q-64 0 -89 -13q-39 -19 -39 -76v-7q1 -36 25 -56q22 -19 56 -19h7q39 2 88 23v147z" />
<glyph unicode="&#xe5;" horiz-adv-x="521" d="M272 597q-44 0 -73.5 29t-29.5 71q0 43 29.5 72t73.5 29q43 0 72.5 -29t29.5 -72q0 -42 -29.5 -71t-72.5 -29zM469 1h-126v48q-73 -56 -150 -56q-73 0 -114 45q-38 41 -38 107v19q2 82 55.5 115.5t179.5 33.5h64v38q0 53 -38 73q-24 12 -73 12h-14q-57 -2 -134 -11l-1 84 q81 21 165 21h15q209 -2 209 -179v-350zM271 754q-24 0 -40.5 -16.5t-16.5 -39.5q0 -24 16.5 -40.5t40.5 -16.5t41 16.5t17 40.5q0 23 -17 39.5t-41 16.5zM340 252q-26 2 -48 2q-64 0 -89 -14q-39 -20 -39 -76v-7q1 -36 25 -56q23 -19 59 -19h4q36 1 88 23v147z" />
<glyph unicode="&#xe6;" horiz-adv-x="814" d="M790 237h-334q3 -66 28 -100q29 -38 89 -45q11 -1 34 -1q67 0 164 22v-88q-90 -32 -200 -32q-104 0 -171 58q-75 -57 -160 -58h-46q-72 0 -111 44q-37 40 -37 108v20q2 83 54 116q52 34 175 34l60 -1q1 3 1.5 8.5t0.5 8.5v20q0 56 -37 74q-24 12 -76 12h-8 q-52 -2 -132 -10v85q81 21 167 21h8q95 0 154 -48q67 49 157 49q116 0 172 -77q34 -45 43 -95q5 -27 5 -87v-21v-17zM567 445q-109 0 -110 -136h219q-3 136 -109 136zM335 253q-20 1 -37 1q-69 0 -94 -13q-39 -21 -38 -76v-7q0 -36 24 -56q22 -18 57 -18h4q43 2 105 33 q-19 58 -21 136z" />
<glyph unicode="&#xe7;" horiz-adv-x="457" d="M310 2v-81q76 0 102 -22q20 -17 20 -53q0 -87 -128 -87q-44 0 -82 6v33q33 -4 56 -4q11 0 19 1q64 6 64 49q0 50 -74 50h-40l1 109q-199 28 -199 247v58q0 104 62.5 166.5t171.5 65.5h8q62 0 147 -14v-90q-77 9 -124 9q-13 0 -24 -1q-46 -3 -78 -36q-36 -38 -36 -102v-67 q0 -134 125 -142h17q49 0 120 14v-88q-64 -16 -128 -21z" />
<glyph unicode="&#xe8;" horiz-adv-x="548" d="M289 626l-125 120h92l103 -120h-70zM515 233h-341q3 -66 28 -98q28 -36 92 -44q20 -2 34 -2q68 0 168 22v-86q-93 -32 -205 -32q-241 0 -241 252v42q0 124 69 187q62 58 171 58q118 0 175 -76q35 -47 45 -97q5 -35 5 -109v-17zM287 444q-110 0 -112 -140h223 q-3 140 -111 140z" />
<glyph unicode="&#xe9;" horiz-adv-x="533" d="M278 626h-70l103 120h92zM510 233h-341q3 -66 28 -98q28 -36 91 -44q22 -2 34 -2q70 0 168 22v-86q-93 -32 -204 -32q-241 0 -241 252v42q0 124 69 187q61 58 171 58q118 0 175 -76q35 -48 44 -97q6 -31 6 -109v-17zM281 444q-109 0 -111 -140h223q-3 140 -112 140z" />
<glyph unicode="&#xea;" horiz-adv-x="548" d="M356 626l-71 93l-71 -93h-82l100 120h107l100 -120h-83zM515 233h-341q3 -66 28 -98q28 -36 92 -44q20 -2 34 -2q68 0 168 22v-86q-93 -32 -205 -32q-241 0 -241 252v42q0 124 69 187q62 58 171 58q118 0 176 -76q33 -45 44 -97q5 -35 5 -109v-17zM287 444 q-110 0 -112 -140h223q-3 140 -111 140z" />
<glyph unicode="&#xeb;" horiz-adv-x="548" d="M339 628v85h100v-85h-100zM130 628v85h100v-85h-100zM515 234h-341q3 -67 28 -99q28 -36 92 -44q20 -2 34 -2q64 0 168 23v-87q-93 -32 -205 -32q-241 0 -241 252v43q0 124 69 187q62 58 171 58q118 0 175 -76q35 -47 45 -97q5 -35 5 -109v-17zM287 445q-110 0 -112 -140 h223q-3 140 -111 140z" />
<glyph unicode="&#xec;" horiz-adv-x="279" d="M159 626l-131 120h96l109 -120h-74zM79 0v523h136v-523h-136z" />
<glyph unicode="&#xed;" horiz-adv-x="279" d="M130 626h-73l108 120h97zM74 0v523h136v-523h-136z" />
<glyph unicode="&#xee;" horiz-adv-x="280" d="M219 626l-73 93l-72 -93h-84l102 120h109l102 -120h-84zM80 0v523h131v-523h-131z" />
<glyph unicode="&#xef;" horiz-adv-x="280" d="M202 628v86h102v-86h-102zM-13 628v86h102v-86h-102zM79 0v524h133v-524h-133z" />
<glyph unicode="&#xf0;" horiz-adv-x="559" d="M510 1h-126v48q-74 -56 -146 -56q-190 0 -190 214v80q2 137 72 201q52 47 155 49q51 0 106 -52v50v30q0 9 -2 21q-5 26 -31 63l-38 -44l-38 33l39 45q-45 39 -55 47l85 89l53 -43l39 44l38 -33l-40 -45l16 -16q43 -40 56 -89q7 -27 7 -112v-524zM268 446q-53 -12 -74 -53 q-17 -37 -17 -113v-39q0 -97 33 -131q26 -27 79 -27q49 0 92 24v332q-44 10 -78 10q-19 0 -35 -3z" />
<glyph unicode="&#xf1;" horiz-adv-x="576" d="M348 633l-71 20q-30 7 -51 9h-6q-38 0 -47 -34h-48q6 92 79 92q21 0 45 -7l71 -19q36 -9 51 -10h2q41 0 51 35h48q-6 -93 -78 -93q-22 0 -46 7zM522 0h-129v326q0 64 -18 83q-25 25 -68 25h-12q-45 -5 -101 -35v-399h-129v524h124v-56q54 37 89 50q39 14 83 14 q83 0 124 -50q37 -44 37 -119v-363z" />
<glyph unicode="&#xf2;" d="M287 626l-125 120h92l103 -120h-70zM284 -7q-235 0 -235 253v40q0 246 235 246q234 0 234 -246q0 -10 1 -21v-19q0 -253 -235 -253zM391 285q0 144 -107 144t-107 -144v-39q0 -150 107 -150t107 150v39z" />
<glyph unicode="&#xf3;" d="M282 626h-70l103 120h92zM284 -7q-235 0 -235 253v40q0 246 235 246q234 0 234 -246q0 -10 1 -21v-19q0 -253 -235 -253zM391 285q0 144 -107 144t-107 -144v-39q0 -150 107 -150t107 150v39z" />
<glyph unicode="&#xf4;" d="M354 626l-71 93l-71 -93h-82l100 120h107l100 -120h-83zM284 -7q-235 0 -235 253v40q0 252 235 252q234 0 234 -252q0 -10 1 -21v-19q0 -253 -235 -253zM391 285q0 144 -107 144t-107 -144v-39q0 -150 107 -150t107 150v39z" />
<glyph unicode="&#xf5;" d="M338 633l-71 20q-30 7 -51 9h-6q-38 0 -47 -34h-48q6 92 79 92q21 0 45 -7l71 -19q36 -9 51 -10h2q41 0 51 35h48q-6 -93 -79 -93q-21 0 -45 7zM284 -7q-235 0 -235 254v39q0 247 235 247q234 0 234 -247q0 -9 1 -20v-19q0 -254 -235 -254zM391 285q0 144 -107 144 t-107 -144v-39q0 -150 107 -150t107 150v39z" />
<glyph unicode="&#xf6;" d="M338 628v85h99v-85h-99zM128 628v85h100v-85h-100zM284 -7q-235 0 -235 254v40q0 246 235 246q234 0 234 -246q0 -10 1 -21v-19q0 -254 -235 -254zM391 285q0 144 -107 144t-107 -144v-39q0 -150 107 -150t107 150v39z" />
<glyph unicode="&#xf7;" horiz-adv-x="518" d="M224 396v89h91v-89h-91zM28 198v91h481v-91h-481zM224 0v91h91v-91h-91z" />
<glyph unicode="&#xf8;" d="M284 -6q-63 0 -120 22l-28 -51h-50l41 73q-78 70 -78 212v22v24q0 248 235 248q58 0 118 -20l30 53h50l-43 -75q79 -69 79 -206q0 -11 1 -24v-22q0 -256 -235 -256zM284 440q-107 0 -107 -145v-46q0 -35 12 -102l156 277q-35 16 -61 16zM391 295q0 36 -13 98l-157 -278 q35 -16 63 -16q107 0 107 150v46z" />
<glyph unicode="&#xf9;" horiz-adv-x="567" d="M299 626l-125 120h92l103 -120h-70zM397 0v48q-77 -56 -157 -56h-13q-161 0 -161 163v368h129v-336q0 -49 19 -72q23 -29 77 -29t102 33l1 404h129v-523h-126z" />
<glyph unicode="&#xfa;" horiz-adv-x="567" d="M293 626h-70l103 120h93zM397 0v48q-77 -56 -157 -56h-13q-161 0 -161 163v368h129v-336q0 -49 19 -72q23 -29 77 -29t102 33l1 404h129v-523h-126z" />
<glyph unicode="&#xfb;" horiz-adv-x="567" d="M366 626l-71 93l-71 -93h-82l99 120h107l100 -120h-82zM397 0v48q-77 -56 -157 -56h-13q-161 0 -161 163v368h129v-336q0 -49 19 -72q23 -29 77 -29t102 33l1 404h129v-523h-126z" />
<glyph unicode="&#xfc;" horiz-adv-x="567" d="M349 628v85h100v-85h-100zM140 628v85h100v-85h-100zM397 1v47q-77 -56 -157 -56h-13q-161 0 -161 163v369h129v-336q0 -48 19 -73q23 -29 77 -29t102 33l1 405h129v-523h-126z" />
<glyph unicode="&#xfd;" horiz-adv-x="279" d="M71 0v538h147v-538h-147z" />
<glyph unicode="&#xfe;" horiz-adv-x="441" d="M387 53q-43 -43 -162 -51v-81q74 0 102 -22q20 -17 20 -53q0 -87 -128 -87q-45 0 -82 6v37q33 -4 55 -4q11 0 20 1q64 6 64 45q0 44 -74 44h-40l1 115q-79 6 -122 19v87q63 -10 129 -13h20q89 0 100 33q3 9 3 16q0 25 -44 54q-5 3 -68 35q-26 12 -88 48q-60 38 -60 113 q0 65 37 99q47 46 173 46q72 0 152 -17v-89q-51 9 -120 14q-27 2 -46.5 2t-29.5 -2q-36 -8 -36 -37q0 -27 26 -44q11 -7 75 -37q58 -27 97 -51q66 -41 66 -116q0 -70 -40 -110z" />
<glyph unicode="&#xff;" d="M337 628v85h99v-85h-99zM130 628v85h99v-85h-99zM337 -83q-34 -98 -134 -108q-13 -1 -28 -1q-35 0 -83 6v92q23 -2 45 -2h14q19 2 41 7q38 11 38 50q0 14 -8 38l-208 527h152l127 -397l108 397h145z" />
<glyph unicode="&#x152;" horiz-adv-x="922" d="M590 2q-44 5 -66 29q-4 4 -19 28q-42 -39 -75 -52q-36 -16 -100 -16q-123 0 -197 71q-77 74 -77 234v131q0 155 77 230t197 75q62 0 98 -16q34 -15 74 -54q20 34 22 37q23 25 66 29q52 4 120 4h28q103 0 159 -7v-106h-254q-23 0 -30 -6.5t-7 -27.5v-165h278v-100h-278 v-175q0 -21 7 -28t30 -7h254v-105q-51 -6 -159 -8h-26q-74 0 -122 5zM473 429q0 104 -37 145q-41 47 -106 47t-106 -47q-36 -42 -36 -145v-136q0 -103 36 -145q41 -47 106 -47t106 47q37 41 37 145v136z" />
<glyph unicode="&#x153;" horiz-adv-x="860" d="M839 235h-333q6 -127 115 -139q22 -2 33 -2q63 0 166 23l1 -92q-91 -32 -202 -32q-112 0 -173 70q-57 -70 -167 -70q-232 0 -232 257v40q0 250 232 250q112 0 169 -73q15 37 67 56q46 17 103 17q116 0 173 -77q34 -46 43 -99q5 -29 5 -89v-21v-19zM614 447 q-105 0 -107 -137h215q-3 137 -108 137zM381 289q0 143 -102 143q-103 0 -103 -143v-39q0 -149 103 -149q102 0 102 143v6v39z" />
<glyph unicode="&#x178;" horiz-adv-x="561" d="M348 835v79h93v-79h-93zM139 835v79h93v-79h-93zM355 280v-280h-128v284l-211 431h153l122 -296l122 296h154z" />
<glyph unicode="&#x2c6;" horiz-adv-x="278" d="M211 602l-66 105l-67 -105h-84l99 144h103l99 -144h-84z" />
<glyph unicode="&#x2dc;" horiz-adv-x="296" d="M201 609l-56 21q-38 13 -59 14h-5q-35 0 -43 -41h-50q4 117 77 117q18 0 44 -8l57 -21q36 -13 58 -14h5q36 0 43 41h50q-4 -117 -77 -117q-17 0 -44 8z" />
<glyph unicode="&#x2000;" horiz-adv-x="493" />
<glyph unicode="&#x2001;" horiz-adv-x="986" />
<glyph unicode="&#x2002;" horiz-adv-x="493" />
<glyph unicode="&#x2003;" horiz-adv-x="986" />
<glyph unicode="&#x2004;" horiz-adv-x="328" />
<glyph unicode="&#x2005;" horiz-adv-x="246" />
<glyph unicode="&#x2006;" horiz-adv-x="164" />
<glyph unicode="&#x2007;" horiz-adv-x="164" />
<glyph unicode="&#x2008;" horiz-adv-x="123" />
<glyph unicode="&#x2009;" horiz-adv-x="197" />
<glyph unicode="&#x200a;" horiz-adv-x="54" />
<glyph unicode="&#x2010;" horiz-adv-x="360" d="M51 236v115h273v-115h-273z" />
<glyph unicode="&#x2011;" horiz-adv-x="360" d="M51 236v115h273v-115h-273z" />
<glyph unicode="&#x2013;" horiz-adv-x="324" d="M22 237v92h292v-92h-292z" />
<glyph unicode="&#x2014;" horiz-adv-x="771" d="M22 237v92h756v-92h-756z" />
<glyph unicode="&#x2018;" horiz-adv-x="300" d="M186 481h-122l99 230h85z" />
<glyph unicode="&#x2019;" horiz-adv-x="233" d="M130 481h-86l62 230h122z" />
<glyph unicode="&#x201a;" horiz-adv-x="261" d="M129 -93h-86l51 213h121z" />
<glyph unicode="&#x201c;" horiz-adv-x="511" d="M408 481h-122l99 230h85zM186 481h-122l98 230h86z" />
<glyph unicode="&#x201d;" horiz-adv-x="511" d="M368 481h-86l62 230h122zM146 481h-86l62 230h122z" />
<glyph unicode="&#x201e;" horiz-adv-x="456" d="M344 -93h-86l51 213h121zM124 -93h-86l51 213h121z" />
<glyph unicode="&#x2022;" horiz-adv-x="374" d="M194 236q-62 0 -106 45q-44 46 -44 108t44 108q44 45 106 45t106 -45q44 -46 44 -108t-44 -108q-44 -45 -106 -45z" />
<glyph unicode="&#x2026;" horiz-adv-x="724" d="M561 0v122h127v-122h-127zM311 0v122h127v-122h-127zM60 0v122h127v-122h-127z" />
<glyph unicode="&#x202f;" horiz-adv-x="197" />
<glyph unicode="&#x2039;" horiz-adv-x="399" d="M233 74l-159 182q-10 11 -10 23q0 13 10 23l160 180h130l-181 -204l181 -204h-131z" />
<glyph unicode="&#x203a;" horiz-adv-x="399" d="M343 256l-160 -182h-131l182 204l-181 204h130l160 -180q10 -10 10 -23q0 -12 -10 -23z" />
<glyph unicode="&#x205f;" horiz-adv-x="246" />
<glyph unicode="&#x20ac;" horiz-adv-x="549" d="M355 -8q-92 2 -134 11q-58 13 -91 45q-52 51 -60 206h-67v67h67v87h-67v65h68q8 149 60 200q59 56 224 59h18q86 0 159 -17v-104q-70 8 -139 8h-28q-105 -3 -138 -40q-23 -28 -26 -106h271l-17 -65h-254v-87h231l-17 -67h-214q1 -82 26 -110q33 -38 138 -41h28 q69 0 139 8v-101q-73 -18 -160 -18h-17z" />
<glyph unicode="&#x2122;" horiz-adv-x="699" d="M374 680v-337h-57v357q0 24 29 24h50q27 0 32 -26q21 -78 61 -250l62 250q8 26 31 26h50q29 0 29 -24v-357h-57v335l-70 -265q-8 -24 -33 -24h-23q-24 0 -33 33zM171 667v-324h-65v324h-94v55h253v-55h-94z" />
<glyph horiz-adv-x="283" />
</font>
</defs>
</svg>
